<svg width="70" height="71" viewBox="0 0 70 71" fill="none" xmlns="http://www.w3.org/2000/svg">
<path d="M20.4154 43.7559H37.9883C38.8147 43.7559 39.4952 43.4759 40.03 42.9159C40.5647 42.3559 40.832 41.6636 40.832 40.8392C40.832 40.0128 40.552 39.3196 39.992 38.7596C39.432 38.1996 38.7398 37.9206 37.9154 37.9225H20.3425C19.5161 37.9225 18.8355 38.2025 18.3008 38.7625C17.7661 39.3225 17.4987 40.0148 17.4987 40.8392C17.4987 41.6656 17.7787 42.3588 18.3387 42.9188C18.8987 43.4788 19.5909 43.7578 20.4154 43.7559ZM20.4154 35.0059H49.655C50.4813 35.0059 51.1619 34.7259 51.6966 34.1659C52.2313 33.6059 52.4987 32.9136 52.4987 32.0892C52.4987 31.2628 52.2187 30.5696 51.6587 30.0096C51.0987 29.4496 50.4065 29.1706 49.582 29.1725H20.3425C19.5161 29.1725 18.8355 29.4525 18.3008 30.0125C17.7661 30.5725 17.4987 31.2648 17.4987 32.0892C17.4987 32.9156 17.7787 33.6088 18.3387 34.1688C18.8987 34.7288 19.5909 35.0078 20.4154 35.0059ZM20.4154 26.2559H49.655C50.4813 26.2559 51.1619 25.9759 51.6966 25.4159C52.2313 24.8559 52.4987 24.1636 52.4987 23.3392C52.4987 22.5128 52.2187 21.8196 51.6587 21.2596C51.0987 20.6996 50.4065 20.4206 49.582 20.4225H20.3425C19.5161 20.4225 18.8355 20.7025 18.3008 21.2625C17.7661 21.8225 17.4987 22.5148 17.4987 23.3392C17.4987 24.1656 17.7787 24.8588 18.3387 25.4188C18.8987 25.9788 19.5909 26.2578 20.4154 26.2559ZM5.83204 60.0163V14.5892C5.83204 12.985 6.4037 11.6113 7.54704 10.4679C8.69037 9.32461 10.0631 8.75392 11.6654 8.75586H58.332C59.9362 8.75586 61.31 9.32753 62.4533 10.4709C63.5966 11.6142 64.1673 12.987 64.1654 14.5892V49.5892C64.1654 51.1934 63.5937 52.5671 62.4504 53.7104C61.307 54.8538 59.9343 55.4245 58.332 55.4225H17.4987L10.7904 62.1309C9.86676 63.0545 8.80898 63.2616 7.61704 62.7521C6.42509 62.2427 5.83009 61.3307 5.83204 60.0163Z" fill="url(#paint0_linear_8587_93175)"/>
<defs>
<linearGradient id="paint0_linear_8587_93175" x1="5.83203" y1="36.6232" x2="74.4952" y2="36.6232" gradientUnits="userSpaceOnUse">
<stop stop-color="#6785FF"/>
<stop offset="0.510162" stop-color="#6667FF"/>
<stop offset="0.824931" stop-color="#8A66FA"/>
</linearGradient>
</defs>
</svg>
