<svg width="24" height="25" viewBox="0 0 24 25" fill="none" xmlns="http://www.w3.org/2000/svg">
<g id="ion:chevron-back-circle">
<path id="Vector" d="M12 21.7559C17.3845 21.7559 21.75 17.3904 21.75 12.0059C21.75 6.62133 17.3845 2.25586 12 2.25586C6.61547 2.25586 2.25 6.62133 2.25 12.0059C2.25 17.3904 6.61547 21.7559 12 21.7559ZM10.3448 8.03602C10.2723 7.96706 10.2142 7.88428 10.1742 7.79255C10.1341 7.70081 10.1128 7.60198 10.1115 7.50188C10.1102 7.40178 10.129 7.30244 10.1667 7.20971C10.2044 7.11698 10.2603 7.03274 10.3311 6.96195C10.4019 6.89116 10.4861 6.83527 10.5789 6.79755C10.6716 6.75983 10.7709 6.74106 10.871 6.74234C10.9711 6.74363 11.07 6.76493 11.1617 6.80501C11.2534 6.84509 11.3362 6.90313 11.4052 6.9757L15.9052 11.4757C16.0457 11.6163 16.1247 11.807 16.1247 12.0059C16.1247 12.2047 16.0457 12.3954 15.9052 12.536L11.4052 17.036C11.2634 17.1707 11.0745 17.2447 10.879 17.2422C10.6834 17.2397 10.4965 17.1609 10.3582 17.0226C10.2199 16.8843 10.1411 16.6975 10.1386 16.5019C10.1361 16.3063 10.2101 16.1175 10.3448 15.9757L14.3142 12.0059L10.3448 8.03602Z" fill="url(#paint0_linear_8587_93284)"/>
</g>
<defs>
<linearGradient id="paint0_linear_8587_93284" x1="21.75" y1="11.7423" x2="-1.20313" y2="11.7423" gradientUnits="userSpaceOnUse">
<stop stop-color="#6785FF"/>
<stop offset="0.510162" stop-color="#6667FF"/>
<stop offset="0.824931" stop-color="#8A66FA"/>
</linearGradient>
</defs>
</svg>
