<svg width="70" height="71" viewBox="0 0 70 71" fill="none" xmlns="http://www.w3.org/2000/svg">
<path d="M56.875 8.75586H13.125C10.8051 8.75839 8.58101 9.68108 6.94061 11.3215C5.30022 12.9619 4.37753 15.186 4.375 17.5059V52.5059C4.37753 54.8257 5.30022 57.0499 6.94061 58.6902C8.58101 60.3306 10.8051 61.2533 13.125 61.2559H56.875C59.1949 61.2533 61.419 60.3306 63.0594 58.6902C64.6998 57.0499 65.6225 54.8257 65.625 52.5059V17.5059C65.6225 15.186 64.6998 12.9619 63.0594 11.3215C61.419 9.68108 59.1949 8.75839 56.875 8.75586ZM45.9375 17.5059C47.2354 17.5059 48.5042 17.8907 49.5834 18.6118C50.6626 19.3329 51.5038 20.3579 52.0005 21.557C52.4972 22.7561 52.6271 24.0756 52.3739 25.3486C52.1207 26.6216 51.4957 27.791 50.5779 28.7087C49.6601 29.6265 48.4908 30.2515 47.2178 30.5048C45.9448 30.758 44.6253 30.628 43.4261 30.1313C42.227 29.6346 41.2021 28.7935 40.481 27.7143C39.7599 26.6351 39.375 25.3663 39.375 24.0684C39.3768 22.3284 40.0688 20.6603 41.2991 19.43C42.5294 18.1997 44.1976 17.5077 45.9375 17.5059ZM13.125 56.8809C11.9647 56.8809 10.8519 56.4199 10.0314 55.5994C9.21094 54.779 8.75 53.6662 8.75 52.5059V43.2596L21.7164 31.7342C22.9674 30.6246 24.5944 30.0338 26.2659 30.0821C27.9374 30.1304 29.5276 30.8141 30.7125 31.9939L39.5924 40.8547L23.5662 56.8809H13.125ZM61.25 52.5059C61.25 53.6662 60.7891 54.779 59.9686 55.5994C59.1481 56.4199 58.0353 56.8809 56.875 56.8809H29.7541L46.3545 40.2805C47.5298 39.281 49.0213 38.7303 50.5642 38.7263C52.107 38.7223 53.6013 39.2652 54.7818 40.2586L61.25 45.648V52.5059Z" fill="url(#paint0_linear_8587_93186)"/>
<defs>
<linearGradient id="paint0_linear_8587_93186" x1="4.375" y1="35.7153" x2="76.4714" y2="35.7153" gradientUnits="userSpaceOnUse">
<stop stop-color="#6785FF"/>
<stop offset="0.510162" stop-color="#6667FF"/>
<stop offset="0.824931" stop-color="#8A66FA"/>
</linearGradient>
</defs>
</svg>
