<svg width="12" height="18" viewBox="0 0 12 18" fill="none" xmlns="http://www.w3.org/2000/svg">
<path d="M5.90838 1.00586C5.32973 1.00586 4.77477 1.23573 4.3656 1.6449C3.95643 2.05407 3.72656 2.60902 3.72656 3.18768V9.00586C3.72656 9.58451 3.95643 10.1395 4.3656 10.5486C4.77477 10.9578 5.32973 11.1877 5.90838 11.1877C6.48703 11.1877 7.04199 10.9578 7.45116 10.5486C7.86033 10.1395 8.0902 9.58451 8.0902 9.00586V3.18768C8.0902 2.60902 7.86033 2.05407 7.45116 1.6449C7.04199 1.23573 6.48703 1.00586 5.90838 1.00586Z" stroke="white" stroke-width="1.5" stroke-linecap="round" stroke-linejoin="round"/>
<path d="M10.9982 7.55127V9.00582C10.9982 10.356 10.4619 11.6509 9.50713 12.6056C8.5524 13.5604 7.25751 14.0967 5.90732 14.0967C4.55712 14.0967 3.26223 13.5604 2.3075 12.6056C1.35277 11.6509 0.816406 10.356 0.816406 9.00582V7.55127" stroke="white" stroke-width="1.5" stroke-linecap="round" stroke-linejoin="round"/>
<path d="M5.90625 14.0967V17.0058" stroke="white" stroke-width="1.5" stroke-linecap="round" stroke-linejoin="round"/>
<path d="M2.99609 17.0059H8.81428" stroke="white" stroke-width="1.5" stroke-linecap="round" stroke-linejoin="round"/>
</svg>
