<svg width="24" height="25" viewBox="0 0 24 25" fill="none" xmlns="http://www.w3.org/2000/svg">
<path d="M21.9018 18.8554L21.6752 18.6554C21.0321 18.0825 20.4693 17.4254 20.0018 16.7021C19.4913 15.7038 19.1853 14.6136 19.1018 13.4954V10.2021C19.1062 8.44581 18.4692 6.74838 17.3103 5.42872C16.1515 4.10905 14.5506 3.25797 12.8085 3.0354V2.1754C12.8085 1.93936 12.7147 1.71298 12.5478 1.54608C12.3809 1.37917 12.1545 1.2854 11.9185 1.2854C11.6824 1.2854 11.4561 1.37917 11.2892 1.54608C11.1223 1.71298 11.0285 1.93936 11.0285 2.1754V3.04873C9.30199 3.28735 7.72047 4.14357 6.57684 5.45881C5.43321 6.77404 4.80498 8.45916 4.80849 10.2021V13.4954C4.72499 14.6136 4.41901 15.7038 3.90849 16.7021C3.44908 17.4236 2.89529 18.0806 2.26182 18.6554L2.03516 18.8554V20.7354H21.9018V18.8554Z" fill="#3B3B3B"/>
<path d="M10.2148 21.4353C10.2733 21.8579 10.4827 22.245 10.8044 22.5253C11.126 22.8055 11.5382 22.9599 11.9648 22.9599C12.3915 22.9599 12.8037 22.8055 13.1253 22.5253C13.447 22.245 13.6564 21.8579 13.7148 21.4353H10.2148Z" fill="#3B3B3B"/>
</svg>
