<svg width="24" height="25" viewBox="0 0 24 25" fill="none" xmlns="http://www.w3.org/2000/svg">
<path d="M18.9 20.3059L13.3 14.7059C12.8 15.1059 12.225 15.4225 11.575 15.6559C10.925 15.8892 10.2333 16.0059 9.5 16.0059C7.68333 16.0059 6.146 15.3765 4.888 14.1179C3.63 12.8592 3.00067 11.3219 3 9.50586C3 7.68919 3.62933 6.15186 4.888 4.89386C6.14667 3.63586 7.684 3.00653 9.5 3.00586C11.3167 3.00586 12.854 3.63519 14.112 4.89386C15.37 6.15253 15.9993 7.68986 16 9.50586C16 10.2392 15.8833 10.9309 15.65 11.5809C15.4167 12.2309 15.1 12.8059 14.7 13.3059L20.325 18.9309C20.5083 19.1142 20.6 19.3392 20.6 19.6059C20.6 19.8725 20.5 20.1059 20.3 20.3059C20.1167 20.4892 19.8833 20.5809 19.6 20.5809C19.3167 20.5809 19.0833 20.4892 18.9 20.3059ZM9.5 14.0059C10.75 14.0059 11.8127 13.5682 12.688 12.6929C13.5633 11.8175 14.0007 10.7552 14 9.50586C14 8.25586 13.5623 7.19319 12.687 6.31786C11.8117 5.44253 10.7493 5.00519 9.5 5.00586C8.25 5.00586 7.18733 5.44353 6.312 6.31886C5.43667 7.19419 4.99933 8.25653 5 9.50586C5 10.7559 5.43767 11.8185 6.313 12.6939C7.18833 13.5692 8.25067 14.0065 9.5 14.0059Z" fill="black"/>
</svg>
