<svg width="25" height="25" viewBox="0 0 25 25" fill="none" xmlns="http://www.w3.org/2000/svg">
<path d="M13.6305 12.2028L6.09851 13.4578C6.01192 13.4722 5.93065 13.5092 5.86289 13.5651C5.79513 13.6209 5.74327 13.6936 5.71251 13.7758L3.11551 20.7338C2.86751 21.3738 3.53651 21.9838 4.15051 21.6758L22.1505 12.6758C22.2749 12.6134 22.3795 12.5177 22.4526 12.3993C22.5257 12.2809 22.5645 12.1445 22.5645 12.0053C22.5645 11.8661 22.5257 11.7297 22.4526 11.6113C22.3795 11.4929 22.2749 11.3971 22.1505 11.3348L4.15051 2.33479C3.53651 2.02779 2.86751 2.63779 3.11551 3.27679L5.71351 10.2348C5.74427 10.317 5.79613 10.3897 5.86389 10.4455C5.93165 10.5013 6.01292 10.5383 6.09951 10.5528L13.6315 11.8078C13.6785 11.8153 13.7213 11.8393 13.7521 11.8755C13.783 11.9117 13.8 11.9577 13.8 12.0053C13.8 12.0529 13.783 12.0989 13.7521 12.1351C13.7213 12.1713 13.6785 12.1953 13.6315 12.2028H13.6305Z" fill="url(#paint0_linear_8587_93460)"/>
<defs>
<linearGradient id="paint0_linear_8587_93460" x1="3.0625" y1="12.2691" x2="26.0179" y2="12.2691" gradientUnits="userSpaceOnUse">
<stop stop-color="#6785FF"/>
<stop offset="0.510162" stop-color="#6667FF"/>
<stop offset="0.824931" stop-color="#8A66FA"/>
</linearGradient>
</defs>
</svg>
