<svg width="24" height="25" viewBox="0 0 24 25" fill="none" xmlns="http://www.w3.org/2000/svg">
<path d="M13.2936 0.00586157C13.6464 0.00586157 13.962 0.225454 14.0808 0.554243L14.9279 2.90256C15.2315 2.97816 15.4919 3.05376 15.7127 3.13295C15.9539 3.21935 16.2647 3.35015 16.6487 3.52894L18.6214 2.48498C18.7824 2.39967 18.9668 2.36887 19.1468 2.39722C19.3268 2.42556 19.4927 2.51151 19.6198 2.64217L21.3549 4.43611C21.5853 4.6749 21.6501 5.02409 21.5205 5.32888L20.5953 7.4972C20.7489 7.77919 20.8713 8.02038 20.9649 8.22198C21.0657 8.44157 21.1905 8.74396 21.3393 9.13395L23.4956 10.0579C23.8196 10.1959 24.02 10.5199 23.9984 10.8667L23.84 13.3566C23.8292 13.5184 23.7711 13.6734 23.673 13.8024C23.5749 13.9315 23.441 14.0289 23.288 14.0826L21.2457 14.8086C21.1869 15.0905 21.1257 15.3317 21.0609 15.5357C20.9564 15.8508 20.8371 16.1607 20.7033 16.4645L21.7293 18.7324C21.8017 18.8918 21.8212 19.0701 21.7849 19.2413C21.7486 19.4126 21.6585 19.5677 21.5277 19.684L19.5766 21.4263C19.4481 21.5406 19.2877 21.6128 19.117 21.6334C18.9463 21.654 18.7734 21.622 18.6214 21.5415L16.6103 20.476C16.2956 20.6426 15.971 20.7896 15.6383 20.9163L14.7599 21.2451L13.98 23.4051C13.9222 23.5632 13.8179 23.7002 13.6808 23.7981C13.5438 23.896 13.3804 23.9501 13.212 23.9534L10.9321 24.005C10.7592 24.0096 10.5892 23.9604 10.4455 23.8644C10.3017 23.7683 10.1912 23.6301 10.1293 23.4687L9.21012 21.0363C8.89651 20.9292 8.586 20.8131 8.27896 20.6883C8.02782 20.5797 7.78049 20.4624 7.53738 20.3368L5.25746 21.3111C5.10723 21.3752 4.94162 21.3943 4.78077 21.3659C4.61992 21.3376 4.47077 21.2631 4.35149 21.1515L2.66435 19.5688C2.53874 19.4515 2.45319 19.2976 2.41982 19.129C2.38644 18.9604 2.40692 18.7856 2.47836 18.6292L3.45872 16.4933C3.32834 16.2403 3.20746 15.9825 3.09633 15.7205C2.96662 15.3998 2.84657 15.0753 2.73635 14.7474L0.588421 14.0934C0.413828 14.0406 0.261545 13.9317 0.155223 13.7835C0.0489015 13.6353 -0.00550937 13.4561 0.000440948 13.2738L0.084438 10.9687C0.0904169 10.8183 0.1374 10.6724 0.220307 10.5467C0.303214 10.4211 0.418888 10.3205 0.554822 10.2559L2.80834 9.17354C2.91274 8.79076 3.00394 8.49317 3.08433 8.27598C3.19754 7.98588 3.32325 7.70082 3.46112 7.42161L2.48435 5.35768C2.41023 5.20094 2.38772 5.02473 2.42006 4.8544C2.4524 4.68406 2.53793 4.52837 2.66435 4.40971L4.34909 2.81856C4.46719 2.70718 4.61497 2.63229 4.77463 2.60291C4.93429 2.57353 5.09904 2.59091 5.24906 2.65297L7.52658 3.59374C7.77857 3.42574 8.00656 3.29015 8.21296 3.18095C8.45895 3.05016 8.78774 2.91336 9.20172 2.76577L9.9937 0.556643C10.0522 0.39497 10.1593 0.255311 10.3002 0.156734C10.441 0.0581568 10.6089 0.00546789 10.7809 0.00586157H13.2936ZM12.0288 8.42837C10.0285 8.42837 8.40735 10.0303 8.40735 12.0078C8.40735 13.9854 10.0285 15.5885 12.0288 15.5885C14.028 15.5885 15.6491 13.9854 15.6491 12.0078C15.6491 10.0303 14.0292 8.42837 12.0288 8.42837Z" fill="#515151"/>
</svg>
