<svg width="28" height="28" viewBox="0 0 28 28" fill="none" xmlns="http://www.w3.org/2000/svg">
<path d="M18.7678 9.64739C19.4129 9.64739 19.9359 9.15052 19.9359 8.5376C19.9359 7.92469 19.4129 7.42782 18.7678 7.42782C18.1226 7.42782 17.5996 7.92469 17.5996 8.5376C17.5996 9.15052 18.1226 9.64739 18.7678 9.64739Z" fill="#6670FF"/>
<path d="M23.3165 8.5376C23.3165 9.15052 22.7935 9.64739 22.1483 9.64739C21.5032 9.64739 20.9802 9.15052 20.9802 8.5376C20.9802 7.92469 21.5032 7.42782 22.1483 7.42782C22.7935 7.42782 23.3165 7.92469 23.3165 8.5376Z" fill="#6670FF"/>
<path fill-rule="evenodd" clip-rule="evenodd" d="M28 14.2741V7.32409C27.9679 5.28023 26.5817 0.965012 21.2935 0.0549859C19.429 -0.213213 15.2246 0.365726 13.3226 4.82707C12.5346 7.0559 12.2121 12.1378 17.2255 14.6348C17.7249 14.8799 19.0121 15.3645 20.1665 15.3423H27.1342C27.3953 15.2914 27.934 15.0066 28 14.2741ZM19.7024 5.1942V4.22314C19.455 4.08904 19.018 3.6627 19.2489 3.03012C19.368 2.68331 19.8206 2.08125 20.6781 2.44748C20.9255 2.57233 21.3653 2.99405 21.1454 3.68212C21.0996 3.80234 20.9447 4.08164 20.6919 4.23701V5.13871C21.5348 5.15259 23.4377 5.63257 24.3063 7.44152C24.7369 7.35829 25.6173 7.40268 25.6943 8.24612V9.53625C25.676 9.82757 25.3782 10.3686 24.3338 10.2021C23.9031 11.1963 22.2668 13.021 19.1664 12.3662C18.5434 12.2367 17.1352 11.6226 16.4865 10.2021C16.1017 10.2761 15.3074 10.2077 15.2085 9.34203V8.2045C15.2405 7.89469 15.541 7.30557 16.4865 7.42765C16.7156 6.79415 17.6794 5.46055 19.7024 5.1942Z" fill="#6670FF"/>
<path fill-rule="evenodd" clip-rule="evenodd" d="M2.36948 8.87807H12.2359C12.2749 10.0805 12.5602 11.3946 13.2808 12.6093H9.62008C7.77189 12.6093 6.30281 14.14 6.30281 15.9578V20.837H5.87631L2.84337 23.5637C2.51165 23.8028 2.03775 23.6115 2.03775 23.181V20.7892C0.900402 20.5978 0 19.5933 0 18.3974V11.2699C0 9.93046 1.04257 8.87807 2.36948 8.87807ZM5.4498 17.058H2.79598C2.51165 17.058 2.32209 16.8667 2.32209 16.5796C2.32209 16.2926 2.51165 16.1013 2.79598 16.1013H5.4498C5.73414 16.1013 5.9237 16.2926 5.9237 16.5796C5.9237 16.8667 5.73414 17.058 5.4498 17.058ZM6.39759 13.7095H2.79598C2.51165 13.7095 2.32209 13.5181 2.32209 13.2311C2.32209 12.9441 2.51165 12.7528 2.79598 12.7528H6.39759C6.68193 12.7528 6.87149 12.9441 6.87149 13.2311C6.87149 13.5181 6.68193 13.7095 6.39759 13.7095Z" fill="#6670FF"/>
<path fill-rule="evenodd" clip-rule="evenodd" d="M9.56585 13.5452H13.9134C14.5556 14.3024 15.4106 14.9911 16.5332 15.5503C17.0325 15.7953 18.3198 16.2799 19.4742 16.2578H24.0197V23.1123C24.0197 24.4517 22.9771 25.5041 21.6502 25.5041H14.6365L11.9827 27.8959C11.651 28.1351 11.1771 27.9437 11.1771 27.5132V25.5041H9.56585C8.23894 25.5041 7.19637 24.4517 7.19637 23.1123V15.9369C7.19637 14.6454 8.23894 13.5452 9.56585 13.5452ZM11.1771 21.7251H19.9916C20.2285 21.7251 20.4654 21.5337 20.4181 21.2467C20.4181 20.9597 20.2285 20.7684 19.9442 20.7684H11.1771C10.8928 20.7684 10.7032 20.9597 10.7032 21.2467C10.7032 21.5337 10.8928 21.7251 11.1771 21.7251ZM11.1771 18.3766H19.9916C20.2285 18.3766 20.4654 18.1852 20.4181 17.8982C20.4181 17.6112 20.2285 17.4199 19.9442 17.4199H11.1771C10.8928 17.4199 10.7032 17.6112 10.7032 17.8982C10.7032 18.1852 10.8928 18.3766 11.1771 18.3766Z" fill="#6670FF"/>
</svg>
