<svg width="25" height="24" viewBox="0 0 25 24" fill="none" xmlns="http://www.w3.org/2000/svg">
<g clip-path="url(#clip0_8587_104394)">
<path fill-rule="evenodd" clip-rule="evenodd" d="M4.59766 2.00006C3.49309 2.00006 2.59766 2.89549 2.59766 4.00006V8.00006C2.59766 9.10463 3.49309 10.0001 4.59766 10.0001H8.59766C9.70223 10.0001 10.5977 9.10463 10.5977 8.00006V4.00006C10.5977 2.89549 9.70223 2.00006 8.59766 2.00006H4.59766ZM6.59766 22.0001C8.8068 22.0001 10.5977 20.2092 10.5977 18.0001C10.5977 15.7909 8.8068 14.0001 6.59766 14.0001C4.38852 14.0001 2.59766 15.7909 2.59766 18.0001C2.59766 20.2092 4.38852 22.0001 6.59766 22.0001ZM14.5977 16.0001C14.5977 14.8955 15.4931 14.0001 16.5977 14.0001H20.5977C21.7022 14.0001 22.5977 14.8955 22.5977 16.0001V20.0001C22.5977 21.1046 21.7022 22.0001 20.5977 22.0001H16.5977C15.4931 22.0001 14.5977 21.1046 14.5977 20.0001V16.0001ZM19.0977 2.75006C19.0977 2.33585 18.7619 2.00006 18.3477 2.00006C17.9334 2.00006 17.5977 2.33585 17.5977 2.75006V5.50006H14.8477C14.4334 5.50006 14.0977 5.83585 14.0977 6.25006C14.0977 6.66427 14.4334 7.00006 14.8477 7.00006H17.5977V9.75006C17.5977 10.1643 17.9334 10.5001 18.3477 10.5001C18.7619 10.5001 19.0977 10.1643 19.0977 9.75006V7.00006H21.8477C22.2619 7.00006 22.5977 6.66427 22.5977 6.25006C22.5977 5.83585 22.2619 5.50006 21.8477 5.50006H19.0977V2.75006Z" fill="#6670FF"/>
</g>
<defs>
<clipPath id="clip0_8587_104394">
<rect width="24" height="24" fill="white" transform="translate(0.597656 6.10352e-05)"/>
</clipPath>
</defs>
</svg>
