<svg width="25" height="24" viewBox="0 0 25 24" fill="none" xmlns="http://www.w3.org/2000/svg">
<g clip-path="url(#clip0_8587_104381)">
<path fill-rule="evenodd" clip-rule="evenodd" d="M10.9992 1.00006H13.3992C19.3639 1.00006 24.1992 5.83539 24.1992 11.8001C24.1992 17.7647 19.3639 22.6001 13.3992 22.6001H4.99922C2.34825 22.6001 0.199219 20.451 0.199219 17.8001V11.8001C0.199219 5.83539 5.03454 1.00006 10.9992 1.00006ZM12.1992 13.0001C12.862 13.0001 13.3992 12.4628 13.3992 11.8001C13.3992 11.1373 12.862 10.6001 12.1992 10.6001C11.5365 10.6001 10.9992 11.1373 10.9992 11.8001C10.9992 12.4628 11.5365 13.0001 12.1992 13.0001ZM18.1992 11.8001C18.1992 12.4628 17.662 13.0001 16.9992 13.0001C16.3365 13.0001 15.7992 12.4628 15.7992 11.8001C15.7992 11.1373 16.3365 10.6001 16.9992 10.6001C17.662 10.6001 18.1992 11.1373 18.1992 11.8001ZM7.39922 13.0001C8.06196 13.0001 8.59922 12.4628 8.59922 11.8001C8.59922 11.1373 8.06196 10.6001 7.39922 10.6001C6.73648 10.6001 6.19922 11.1373 6.19922 11.8001C6.19922 12.4628 6.73648 13.0001 7.39922 13.0001Z" fill="#6670FF"/>
</g>
<defs>
<clipPath id="clip0_8587_104381">
<rect width="24" height="24" fill="white" transform="translate(0.199219 6.10352e-05)"/>
</clipPath>
</defs>
</svg>
