<svg width="25" height="24" viewBox="0 0 25 24" fill="none" xmlns="http://www.w3.org/2000/svg">
<g clip-path="url(#clip0_8587_104390)">
<path fill-rule="evenodd" clip-rule="evenodd" d="M6.79688 2.00006C4.58774 2.00006 2.79688 3.79092 2.79688 6.00006V18.0001C2.79688 20.2092 4.58774 22.0001 6.79687 22.0001H18.7969C21.006 22.0001 22.7969 20.2092 22.7969 18.0001V6.00006C22.7969 3.79092 21.006 2.00006 18.7969 2.00006H6.79688ZM7.79688 18.5001C8.6253 18.5001 9.29688 17.8285 9.29688 17.0001C9.29688 16.1716 8.6253 15.5001 7.79688 15.5001C6.96845 15.5001 6.29688 16.1716 6.29688 17.0001C6.29688 17.8285 6.96845 18.5001 7.79688 18.5001ZM6.05266 10.9073C6.10391 10.4963 6.47867 10.2046 6.8897 10.2559C10.8813 10.7537 14.0434 13.9157 14.5411 17.9073C14.5924 18.3184 14.3007 18.6931 13.8897 18.7444C13.4787 18.7956 13.1039 18.504 13.0527 18.0929C12.6399 14.7826 10.0145 12.1572 6.70409 11.7444C6.29306 11.6931 6.0014 11.3184 6.05266 10.9073ZM6.79688 5.25006C6.38266 5.25006 6.04688 5.58585 6.04688 6.00006C6.04688 6.41427 6.38266 6.75006 6.79688 6.75006C13.0101 6.75006 18.0469 11.7869 18.0469 18.0001C18.0469 18.4143 18.3827 18.7501 18.7969 18.7501C19.2111 18.7501 19.5469 18.4143 19.5469 18.0001C19.5469 10.9584 13.8385 5.25006 6.79688 5.25006Z" fill="#6670FF"/>
</g>
<defs>
<clipPath id="clip0_8587_104390">
<rect width="24" height="24" fill="white" transform="translate(0.796875 6.10352e-05)"/>
</clipPath>
</defs>
</svg>
