<svg width="24" height="24" viewBox="0 0 24 24" fill="none" xmlns="http://www.w3.org/2000/svg">
<path fill-rule="evenodd" clip-rule="evenodd" d="M12 24.0001C18.6274 24.0001 24 18.6275 24 12.0001C24 5.37264 18.6274 6.10352e-05 12 6.10352e-05C5.37258 6.10352e-05 0 5.37264 0 12.0001C0 18.6275 5.37258 24.0001 12 24.0001ZM11.3624 9.20942C11.5334 8.83103 11.6021 8.42888 11.6004 8.0112C11.5904 7.22357 11.3985 6.49283 10.9869 5.83244C10.8005 5.53354 10.5634 5.28981 10.258 5.12991C9.86734 4.925 9.40275 4.937 9.02734 5.34075C8.89919 5.479 8.79238 5.6378 8.71083 5.81131C8.54304 6.16526 8.46238 6.54297 8.4486 6.93655C8.42695 7.55285 8.5494 8.139 8.79504 8.69637C8.92793 8.99778 9.10304 9.26858 9.3292 9.50124C9.46575 9.64195 9.61383 9.76724 9.78538 9.85656C10.0847 10.0126 10.3984 10.0175 10.717 9.94405C10.7568 9.93525 10.7953 9.9115 10.8297 9.88694C11.0689 9.71596 11.239 9.48251 11.3624 9.20942ZM15.4015 7.02367C15.4138 7.29045 15.3967 7.55785 15.3505 7.82043C15.2394 8.43056 14.988 8.96669 14.5919 9.42526C14.4797 9.55689 14.3483 9.6687 14.2028 9.75648C13.8493 9.96721 13.4855 9.97246 13.1236 9.792C12.7743 9.61794 12.5392 9.32498 12.4006 8.94476C12.2955 8.65671 12.2467 8.35712 12.2441 8.0484C12.2375 7.2465 12.4718 6.52718 12.9098 5.87992C13.0879 5.61723 13.3082 5.39874 13.5795 5.24523C13.7253 5.16289 13.8766 5.09196 14.0434 5.07471C14.3903 5.03885 14.682 5.16209 14.9187 5.43129C15.1466 5.69021 15.2796 6.00054 15.3494 6.34364C15.3939 6.56293 15.4086 6.78519 15.4015 7.02367ZM14.3058 18.4163C13.9334 18.4149 13.5648 18.3368 13.2204 18.1863L13.1295 18.1472C13.0199 18.1002 12.9105 18.0533 12.8022 18.0028C12.4381 17.8333 12.0664 17.7962 11.6831 17.9062C11.5251 17.9516 11.3668 17.9954 11.2084 18.0393C11.0393 18.0862 10.8701 18.133 10.7014 18.1817C10.4271 18.2609 10.1511 18.3302 9.87011 18.3716C9.78395 18.3842 9.69644 18.3873 9.60931 18.3903L9.58516 18.3912L9.55809 18.3921C9.21626 18.4042 8.87466 18.4163 8.53408 18.3582C8.18171 18.2982 7.85928 18.1539 7.58079 17.9083C7.17328 17.5486 7.02251 17.0745 7.12439 16.499C7.23283 15.8864 7.43669 15.315 7.70776 14.7725C8.18289 13.8208 8.76993 12.9661 9.47692 12.2176C9.82563 11.8485 10.2092 11.5332 10.64 11.2933C10.8263 11.1871 11.0215 11.0995 11.223 11.0316C11.5817 10.9146 11.9344 10.953 12.2816 11.0909C12.6788 11.2488 13.03 11.4973 13.3569 11.7924C13.9655 12.342 14.4647 13.0017 14.8961 13.7294C15.2476 14.3222 15.5487 14.9449 15.7706 15.6139C15.8729 15.9252 15.9432 16.2474 15.9801 16.5747C16.0555 17.2188 15.8274 17.7083 15.3803 18.0852C15.153 18.2768 14.8938 18.3822 14.6077 18.3962C14.5344 18.3996 14.4611 18.405 14.3882 18.4103L14.3058 18.4163ZM18.9984 10.5503C19.003 10.9337 18.9492 11.306 18.8252 11.6664C18.6173 12.2701 18.2513 12.7443 17.7617 13.1147C17.1455 13.5807 16.3822 13.4104 15.9237 12.9374C15.6053 12.609 15.4352 12.2095 15.4106 11.7388C15.3709 10.9836 15.5482 10.2912 15.9425 9.6617C16.2009 9.25053 16.5373 8.92775 16.9581 8.70755C17.2333 8.56364 17.5195 8.49865 17.8251 8.5553C18.1519 8.61622 18.4133 8.78868 18.6095 9.07269C18.8223 9.38256 18.9372 9.7316 18.9747 10.1099C18.9847 10.21 18.9886 10.3108 18.9925 10.4117C18.9943 10.4579 18.9961 10.5041 18.9984 10.5503ZM8.43661 11.1805L8.43661 11.1804C8.43914 11.1273 8.44167 11.0742 8.44525 11.021C8.44495 10.7842 8.4244 10.548 8.38387 10.3152C8.26928 9.6783 8.01341 9.11591 7.59771 8.63815C7.32396 8.32338 7.00088 8.08855 6.61136 7.96292C6.29744 7.86207 5.99568 7.88456 5.70868 8.0624C5.54788 8.16243 5.40974 8.29865 5.30398 8.46146C5.09538 8.77749 5.00621 9.1327 4.99964 9.51452C4.98878 10.0341 5.09546 10.5489 5.31076 11.0158C5.54973 11.5374 5.88961 11.9662 6.35602 12.2765C6.68567 12.4957 7.04041 12.6183 7.4337 12.584C7.7235 12.5586 7.96591 12.4338 8.14447 12.1826C8.28819 11.9833 8.3807 11.7479 8.41294 11.4993C8.42645 11.3936 8.43152 11.2872 8.4366 11.1806L8.43661 11.1805Z" fill="#6670FF"/>
</svg>
